<svg fill="#fff" viewBox="0 0 1000 1000" version="1.1" xmlns="http://www.w3.org/2000/svg" xmlns:xlink="http://www.w3.org/1999/xlink" enable-background="new 0 0 1000 1000" xml:space="preserve" stroke="#fff"><g id="SVGRepo_bgCarrier" stroke-width="0"></g><g id="SVGRepo_tracerCarrier" stroke-linecap="round" stroke-linejoin="round"></g><g id="SVGRepo_iconCarrier"> <metadata> Svg Vector Icons : http://www.onlinewebfonts.com/icon </metadata> <g> <g transform="translate(0.000000,511.000000) scale(0.100000,-0.100000)"> <path d="M4448.9,4995.4c-119.5-30.4-299.8-129.7-409.2-224.9c-111.4-97.2-245.1-291.7-265.4-382.9l-12.2-58.8l-753.7-6.1c-731.4-6.1-757.7-8.1-863.1-52.7c-310-131.7-565.2-427.5-628.1-729.4c-16.2-77-22.3-1167-22.3-3778.4c0-4005.3-6.1-3772.3,113.5-4011.4c113.5-222.9,419.4-464,658.4-518.7c56.7-14.2,1025.1-22.3,2733-22.3c2860.7,0,2731-4.1,2957.9,111.4c135.7,68.9,356.6,287.7,429.5,427.5c123.6,231,117.5-6.1,117.5,4013.5c0,2611.5-6.1,3701.4-22.3,3778.4c-72.9,350.5-411.3,688.8-763.8,763.8c-66.9,14.2-362.7,22.3-794.2,22.3h-684.8l-14.2,56.7c-18.2,87.1-162.1,295.8-269.4,391c-52.7,46.6-164.1,117.5-247.2,158l-151.9,72.9l-516.6,4.1C4756.9,5011.6,4489.5,5005.6,4448.9,4995.4z M5547,4377.5c119.5-60.8,121.6-79,121.6-871.2v-719.2h597.7h597.7v-273.5v-273.5h-1874h-1874v273.5v273.5h607.8h607.8v717.2c0,417.4,8.1,739.5,20.3,769.9c10.1,28.4,48.6,70.9,85.1,93.2c62.8,36.5,103.3,40.5,559.2,40.5C5397.1,4407.9,5498.4,4401.8,5547,4377.5z M3723.6,3557v-162.1h-419.4c-470,0-520.7-12.2-652.4-143.8c-141.8-143.8-143.8-152-143.8-923.8v-694.9h2481.8h2481.8v694.9c0,761.8-2,767.9-133.7,923.8c-107.4,129.7-170.2,143.8-640.2,143.8h-421.4V3557v164.1l717.2-6.1c688.8-6.1,721.2-8.1,775.9-48.6c30.4-22.3,72.9-72.9,91.2-111.4c34.4-64.8,36.5-287.7,36.5-3786.5c0-3498.8-2-3721.7-36.5-3786.5c-18.2-38.5-60.8-89.1-91.2-111.4c-56.7-42.5-58.8-42.5-2769.5-42.5c-2710.7,0-2712.8,0-2769.5,42.5c-30.4,22.3-72.9,72.9-91.2,111.4c-34.4,64.8-36.5,287.7-36.5,3780.4c0,4147.1-10.1,3837.2,139.8,3916.2c66.9,36.5,123.6,38.5,778,40.5h703V3557z"></path> <path d="M3014.6,396.5V92.6H5000h1985.5v303.9v303.9H5000H3014.6V396.5z"></path> <path d="M3014.6-920.4v-303.9H5000h1985.5v303.9v303.9H5000H3014.6V-920.4z"></path> <path d="M3014.6-2176.5v-303.9h962.3h962.3v303.9v303.9h-962.3h-962.3V-2176.5z"></path> </g> </g> </g></svg>